<svg width="131" height="20" viewBox="0 0 131 20" fill="none" xmlns="http://www.w3.org/2000/svg">
<path d="M13.175 19L11.875 14.75H5.375L4.075 19H0L6.3 1.075H10.925L17.25 19H13.175ZM9.675 7.425C9.59167 7.14167 9.48333 6.78333 9.35 6.35C9.21667 5.91667 9.08333 5.475 8.95 5.025C8.81667 4.575 8.70833 4.18333 8.625 3.85C8.54167 4.18333 8.425 4.6 8.275 5.1C8.14167 5.58333 8.00833 6.05 7.875 6.5C7.75833 6.93333 7.66667 7.24167 7.6 7.425L6.325 11.575H10.975L9.675 7.425ZM40.3357 19H35.5357L27.7607 5.5H27.6607C27.6774 5.91667 27.6941 6.34167 27.7107 6.775C27.7274 7.19167 27.7441 7.61667 27.7607 8.05C27.7941 8.46667 27.8191 8.89167 27.8357 9.325C27.8524 9.74167 27.8691 10.1667 27.8857 10.6V19H24.5107V1.15H29.2857L37.0357 14.525H37.1107C37.0941 14.1083 37.0774 13.7 37.0607 13.3C37.0441 12.8833 37.0274 12.475 37.0107 12.075C37.0107 11.6583 37.0024 11.25 36.9857 10.85C36.9691 10.4333 36.9524 10.0167 36.9357 9.6V1.15H40.3357V19ZM60.7727 19L59.4727 14.75H52.9727L51.6727 19H47.5977L53.8977 1.075H58.5227L64.8477 19H60.7727ZM57.2727 7.425C57.1893 7.14167 57.081 6.78333 56.9477 6.35C56.8143 5.91667 56.681 5.475 56.5477 5.025C56.4143 4.575 56.306 4.18333 56.2227 3.85C56.1393 4.18333 56.0227 4.6 55.8727 5.1C55.7393 5.58333 55.606 6.05 55.4727 6.5C55.356 6.93333 55.2643 7.24167 55.1977 7.425L53.9227 11.575H58.5727L57.2727 7.425ZM83.7334 19H70.4584V16.55L79.0084 4.275H70.6834V1.15H83.5084V3.6L74.9584 15.875H83.7334V19ZM107.542 10.05C107.542 11.4333 107.367 12.6917 107.017 13.825C106.683 14.9417 106.167 15.9083 105.467 16.725C104.783 17.5417 103.9 18.1667 102.817 18.6C101.75 19.0333 100.492 19.25 99.0418 19.25C97.5918 19.25 96.3251 19.0333 95.2418 18.6C94.1751 18.15 93.2918 17.525 92.5918 16.725C91.9085 15.9083 91.3918 14.9333 91.0418 13.8C90.7085 12.6667 90.5418 11.4083 90.5418 10.025C90.5418 8.175 90.8418 6.56667 91.4418 5.2C92.0585 3.83333 92.9918 2.775 94.2418 2.025C95.5085 1.25833 97.1168 0.874999 99.0668 0.874999C101 0.874999 102.592 1.25833 103.842 2.025C105.092 2.775 106.017 3.84167 106.617 5.225C107.233 6.59167 107.542 8.2 107.542 10.05ZM94.5168 10.05C94.5168 11.3 94.6751 12.375 94.9918 13.275C95.3085 14.175 95.8001 14.8667 96.4668 15.35C97.1335 15.8333 97.9918 16.075 99.0418 16.075C100.125 16.075 100.992 15.8333 101.642 15.35C102.308 14.8667 102.792 14.175 103.092 13.275C103.408 12.375 103.567 11.3 103.567 10.05C103.567 8.16667 103.217 6.69167 102.517 5.625C101.817 4.55833 100.667 4.025 99.0668 4.025C98.0001 4.025 97.1335 4.26667 96.4668 4.75C95.8001 5.23333 95.3085 5.925 94.9918 6.825C94.6751 7.725 94.5168 8.8 94.5168 10.05ZM121.439 1.15C123.056 1.15 124.389 1.35 125.439 1.75C126.489 2.13333 127.273 2.725 127.789 3.525C128.306 4.30833 128.564 5.3 128.564 6.5C128.564 7.31667 128.406 8.03333 128.089 8.65C127.789 9.25 127.381 9.76667 126.864 10.2C126.364 10.6167 125.823 10.9583 125.239 11.225L130.489 19H126.289L122.039 12.15H120.014V19H116.239V1.15H121.439ZM121.164 4.25H120.014V9.075H121.239C122.073 9.075 122.748 8.98333 123.264 8.8C123.781 8.61667 124.156 8.34167 124.389 7.975C124.623 7.59167 124.739 7.13333 124.739 6.6C124.739 6.03333 124.606 5.58333 124.339 5.25C124.089 4.9 123.698 4.65 123.164 4.5C122.648 4.33333 121.981 4.25 121.164 4.25Z" fill="#FD7E14"/>
</svg>
